<svg xmlns="http://www.w3.org/2000/svg" width="124.242" height="62.733" viewBox="0 0 124.242 62.733">
  <g id="Group_7534" data-name="Group 7534" transform="translate(15.242 -1)">
    <g id="Group_7793" data-name="Group 7793" transform="translate(94.758 1)">
      <path id="Path_17129" data-name="Path 17129" d="M258.868,100.128l2.011,1.482v25.324c0,2.673-.269,4.32-1.414,5.361s-1.9,1.271-4.675,1.271c-.937,0-1.163-.047-3.063-.119l-.146-.106-2.32-1.709v7.336a32.794,32.794,0,0,0,7.271.6c6.284,0,7.9-.99,10.776-2.97s4.313-5.2,4.313-9.663V101.829l2.312-1.7Zm-63.921,7.707,2.306-1.708h8.958v31.146l-2.318,1.694h15.834l-2.313-1.694V106.128h8.96l2.3,1.708v-7.707H194.947Zm51.576-7.773H231.464l2.305,1.7v35.446l-2.305,1.694h15.059l-2.307-1.694V101.763Z" transform="translate(-259.69 -76.834)" fill="#f26521"/>
      <path id="Path_17130" data-name="Path 17130" d="M11.109,43.093C5.768,41.75,1.292,34.953.2,36.061c-1.084,1.13,2.406,6.581,5.893,8.923s10.65,3.566,10.65,3.566a23.8,23.8,0,0,1-.514,5.457c-.653,3.56-5.66,19.165-6.432,24.848s-.987,10.861-.987,10.861h10.72s3.135-35.823,2.922-40.608-6-4.683-11.344-6.015m35.266-7.032c-1.086-1.108-5.561,5.69-10.9,7.032s-11.121,1.224-11.335,6.015,2.918,40.608,2.918,40.608H37.765s-.214-5.185-.986-10.861S31,57.568,30.36,54.007a23.773,23.773,0,0,1-.52-5.457S37,47.33,40.494,44.984s6.979-7.793,5.881-8.923" transform="translate(-110 -27.597)" fill="#5a5e62"/>
      <path id="Path_17131" data-name="Path 17131" d="M74.625,0A7.765,7.765,0,1,0,82.4,7.763,7.771,7.771,0,0,0,74.625,0" transform="translate(-161.335)" fill="#f26521"/>
    </g>
  </g>
</svg>
